<svg id="Capa_1" data-name="Capa 1" xmlns="http://www.w3.org/2000/svg" viewBox="0 0 412.72 296.11"><defs><style>.cls-1{fill:#f8bf50;}</style></defs><path class="cls-1" d="M404.72,82.94h-27.2V73.66a8,8,0,0,0-5.76-8,225.91,225.91,0,0,0-57.68-7.36c-32,0-75.6,7.2-107.84,40-32-33.12-75.92-40-107.84-40a225.91,225.91,0,0,0-57.68,7.36,8,8,0,0,0-5.76,8v9.2H8a8,8,0,0,0-8,8V346.38a8,8,0,0,0,11.92,7c.8-.4,80.8-44.16,192.48-16h1.92a7.71,7.71,0,0,0,1.92,0c112-28.4,192,15.28,192.48,16a8,8,0,0,0,12-6.88V90.94A8,8,0,0,0,404.72,82.94ZM16,333.66V98.94H35.12V299.58A8,8,0,0,0,43,307.67a7,7,0,0,0,1.29-.09,351.71,351.71,0,0,1,50-4,207.69,207.69,0,0,1,68.32,10.32A294.27,294.27,0,0,0,16,333.66Zm78.32-46a353.83,353.83,0,0,0-43.52,2.8V80A220.72,220.72,0,0,1,98.24,74.7c29.92,0,71.2,6.88,99.84,39.2l.24,199.28C181.68,302.3,149.2,287.66,94.32,287.66Zm120-173.76c28.64-32,69.92-39.2,99.84-39.2A222,222,0,0,1,361.6,80V290.46a351.87,351.87,0,0,0-43.28-2.88c-54.56,0-87.12,14.64-104,25.52ZM396.64,333.66a294.26,294.26,0,0,0-147-19.76,208,208,0,0,1,68.64-10.32,351.71,351.71,0,0,1,50.32,3.92,8,8,0,0,0,9.11-6.71,6.88,6.88,0,0,0,.09-1.29V98.94H397Z" transform="translate(0 -58.3)"/></svg>