<svg id="Capa_1" data-name="Capa 1" xmlns="http://www.w3.org/2000/svg" viewBox="0 0 64.02 64.02"><defs><style>.cls-1{fill:#c39842;}</style></defs><path class="cls-1" d="M66.24,30.78,61.74,30a26,26,0,0,0-1.8-4.36L62.58,22a3.94,3.94,0,0,0-.42-5.09l-4-4a3.94,3.94,0,0,0-5.08-.43l-3.72,2.65a25.43,25.43,0,0,0-4.52-1.86L44.1,8.79a4,4,0,0,0-3.91-3.3H34.56a3.94,3.94,0,0,0-3.9,3.3l-.78,4.55a24.65,24.65,0,0,0-4.34,1.83l-3.68-2.65a4,4,0,0,0-5.1.43l-4,4A4,4,0,0,0,12.34,22L15,25.79a24.73,24.73,0,0,0-1.78,4.37l-4.44.75a4,4,0,0,0-3.3,3.91v5.63a3.94,3.94,0,0,0,3.3,3.9l4.55.78a24.74,24.74,0,0,0,1.83,4.35l-2.63,3.66a4,4,0,0,0,.42,5.1l4,4a3.91,3.91,0,0,0,5.08.43L25.79,60A24.72,24.72,0,0,0,30,61.71l.75,4.5a3.94,3.94,0,0,0,3.9,3.3h5.65a4,4,0,0,0,3.9-3.3l.76-4.5a25.17,25.17,0,0,0,4.36-1.8l3.71,2.65a3.93,3.93,0,0,0,2.3.73h0a3.92,3.92,0,0,0,2.79-1.16l4-4a4,4,0,0,0,.43-5.09l-2.65-3.72A25,25,0,0,0,61.71,45l4.5-.75a4,4,0,0,0,3.3-3.9V34.68A3.9,3.9,0,0,0,66.24,30.78Zm-.31,9.54a.34.34,0,0,1-.3.34L60,41.6a1.81,1.81,0,0,0-1.45,1.32,21.2,21.2,0,0,1-2.33,5.61,1.81,1.81,0,0,0,.08,2l3.31,4.66a.36.36,0,0,1,0,.45l-4,4a.34.34,0,0,1-.25.11.32.32,0,0,1-.2-.07l-4.64-3.31a1.83,1.83,0,0,0-2-.08,21.28,21.28,0,0,1-5.6,2.33A1.79,1.79,0,0,0,41.61,60l-1,5.61a.34.34,0,0,1-.34.3H34.68a.34.34,0,0,1-.34-.3L33.4,60a1.81,1.81,0,0,0-1.32-1.45,22,22,0,0,1-5.49-2.25,1.85,1.85,0,0,0-.91-.24,1.75,1.75,0,0,0-1,.34L20,59.75a.4.4,0,0,1-.2.07.39.39,0,0,1-.26-.11l-4-4a.35.35,0,0,1,0-.45l3.29-4.62a1.84,1.84,0,0,0,.08-2,21.21,21.21,0,0,1-2.36-5.59,1.81,1.81,0,0,0-1.44-1.32l-5.66-1a.35.35,0,0,1-.29-.35V34.82a.35.35,0,0,1,.29-.35L15,33.53a1.82,1.82,0,0,0,1.46-1.33,21.16,21.16,0,0,1,2.29-5.62,1.77,1.77,0,0,0-.1-1.95L15.29,20a.38.38,0,0,1,0-.46l4-4a.31.31,0,0,1,.25-.11.32.32,0,0,1,.2.07l4.62,3.29a1.84,1.84,0,0,0,2,.08A20.88,20.88,0,0,1,32,16.48,1.84,1.84,0,0,0,33.28,15l1-5.66a.35.35,0,0,1,.35-.29h5.63a.35.35,0,0,1,.35.29L41.51,15a1.79,1.79,0,0,0,1.33,1.45,21.65,21.65,0,0,1,5.74,2.36,1.83,1.83,0,0,0,2-.08l4.61-3.32a.4.4,0,0,1,.2-.07.39.39,0,0,1,.26.11l4,4a.35.35,0,0,1,0,.45l-3.3,4.64a1.81,1.81,0,0,0-.08,2,21.25,21.25,0,0,1,2.32,5.6A1.79,1.79,0,0,0,60,33.39l5.62,1a.34.34,0,0,1,.29.34v5.64Z" transform="translate(-5.49 -5.49)"/><path class="cls-1" d="M37.51,23.68A13.82,13.82,0,1,0,51.32,37.49,13.82,13.82,0,0,0,37.51,23.68Zm0,24a10.21,10.21,0,1,1,10.2-10.21A10.22,10.22,0,0,1,37.51,47.7Z" transform="translate(-5.49 -5.49)"/></svg>