<?xml version="1.0" encoding="utf-8"?>
<!-- Generator: Adobe Illustrator 24.1.2, SVG Export Plug-In . SVG Version: 6.00 Build 0)  -->
<svg version="1.1" id="Capa_1" xmlns="http://www.w3.org/2000/svg" xmlns:xlink="http://www.w3.org/1999/xlink" x="0px" y="0px"
	 viewBox="0 0 64 64" style="enable-background:new 0 0 64 64;" xml:space="preserve">
<style type="text/css">
	.st0{fill:#FFFFFF;}
</style>
<path class="st0" d="M60.8,25.3l-4.5-0.8c-0.5-1.5-1.1-3-1.8-4.4l2.6-3.6c1.1-1.6,0.9-3.7-0.4-5.1l-4-4c-1.4-1.4-3.5-1.5-5.1-0.4
	l-3.7,2.6c-1.4-0.8-3-1.4-4.5-1.9l-0.7-4.5c-0.3-1.9-2-3.3-3.9-3.3h-5.6c-1.9,0-3.6,1.4-3.9,3.3l-0.8,4.6c-1.5,0.5-3,1.1-4.3,1.8
	L16.4,7c-1.6-1.1-3.7-0.9-5.1,0.4l-4,4c-1.3,1.4-1.5,3.5-0.4,5l2.7,3.8c-0.7,1.4-1.3,2.9-1.8,4.4l-4.4,0.8c-1.9,0.3-3.3,2-3.3,3.9
	V35c0,1.9,1.4,3.6,3.3,3.9l4.6,0.8c0.5,1.5,1.1,3,1.8,4.3L7,47.7c-1.1,1.6-0.9,3.7,0.4,5.1l4,4c1.4,1.4,3.5,1.6,5.1,0.4l3.8-2.7
	c1.3,0.7,2.8,1.3,4.2,1.7l0.8,4.5c0.3,1.9,2,3.3,3.9,3.3h5.7c1.9,0,3.6-1.4,3.9-3.3l0.8-4.5c1.5-0.5,3-1.1,4.4-1.8l3.7,2.7
	c0.7,0.5,1.5,0.7,2.3,0.7l0,0c1,0,2.1-0.4,2.8-1.2l4-4c1.3-1.4,1.5-3.5,0.4-5.1l-2.7-3.7c0.7-1.4,1.3-2.8,1.8-4.3l4.5-0.8
	c1.9-0.3,3.3-2,3.3-3.9v-5.7C64,27.3,62.7,25.6,60.8,25.3z M60.4,34.8c0,0.2-0.1,0.3-0.3,0.3l-5.6,0.9c-0.7,0.1-1.3,0.6-1.5,1.3
	c-0.5,2-1.3,3.9-2.3,5.6c-0.4,0.6-0.3,1.4,0.1,2l3.3,4.7c0.1,0.1,0.1,0.3,0,0.5l-4,4c-0.1,0.1-0.2,0.1-0.3,0.1c-0.1,0-0.1,0-0.2-0.1
	L45,50.9c-0.6-0.4-1.4-0.5-2-0.1c-1.7,1-3.6,1.8-5.6,2.3c-0.7,0.2-1.2,0.7-1.3,1.4l-1,5.6c0,0.2-0.2,0.3-0.3,0.3h-5.6
	c-0.2,0-0.3-0.1-0.3-0.3l-0.9-5.6c-0.1-0.7-0.6-1.3-1.3-1.5c-1.9-0.5-3.8-1.3-5.5-2.3c-0.3-0.2-0.6-0.2-0.9-0.2
	c-0.4,0-0.7,0.1-1,0.3l-4.7,3.4c-0.1,0-0.1,0.1-0.2,0.1c-0.1,0-0.2,0-0.3-0.1l-4-4c-0.1-0.1-0.1-0.3,0-0.5l3.3-4.6
	c0.4-0.6,0.4-1.4,0.1-2c-1.1-1.7-1.8-3.6-2.4-5.6c-0.2-0.7-0.7-1.2-1.4-1.3l-5.7-1c-0.2,0-0.3-0.2-0.3-0.3v-5.6
	C3.7,29.2,3.8,29,4,29L9.5,28c0.7-0.1,1.3-0.6,1.5-1.3c0.5-2,1.3-3.9,2.3-5.6c0.4-0.6,0.3-1.4-0.1-2l-3.4-4.6
	c-0.1-0.1-0.1-0.3,0-0.5l4-4c0.1-0.1,0.2-0.1,0.3-0.1c0.1,0,0.1,0,0.2,0.1l4.6,3.3c0.6,0.4,1.4,0.4,2,0.1c1.8-1.1,3.7-1.9,5.6-2.4
	c0.7-0.2,1.2-0.8,1.3-1.5l1-5.7c0-0.2,0.2-0.3,0.3-0.3h5.6c0.2,0,0.3,0.1,0.3,0.3L36,9.5c0.1,0.7,0.6,1.3,1.3,1.5
	c2,0.5,3.9,1.3,5.7,2.4c0.6,0.4,1.4,0.3,2-0.1l4.6-3.3c0.1,0,0.1-0.1,0.2-0.1c0.1,0,0.2,0,0.3,0.1l4,4c0.1,0.1,0.1,0.3,0,0.5
	l-3.3,4.6c-0.4,0.6-0.5,1.4-0.1,2c1,1.7,1.8,3.6,2.3,5.6c0.2,0.7,0.7,1.1,1.4,1.3l5.6,1c0.2,0,0.3,0.2,0.3,0.3L60.4,34.8L60.4,34.8z
	"/>
<path class="st0" d="M32,18.2c-7.6,0-13.8,6.2-13.8,13.8S24.4,45.8,32,45.8c7.6,0,13.8-6.2,13.8-13.8c0,0,0,0,0,0
	C45.8,24.4,39.6,18.2,32,18.2z M32,42.2c-5.6,0-10.2-4.6-10.2-10.2c0-5.6,4.6-10.2,10.2-10.2S42.2,26.3,42.2,32c0,0,0,0,0,0
	C42.2,37.6,37.7,42.2,32,42.2L32,42.2z"/>
</svg>
