<?xml version="1.0" encoding="utf-8"?>
<!-- Generator: Adobe Illustrator 24.1.2, SVG Export Plug-In . SVG Version: 6.00 Build 0)  -->
<svg version="1.1" id="Capa_1" xmlns="http://www.w3.org/2000/svg" xmlns:xlink="http://www.w3.org/1999/xlink" x="0px" y="0px"
	 viewBox="0 0 480 480" style="enable-background:new 0 0 480 480;" xml:space="preserve">
<style type="text/css">
	.st0{fill:#FFFFFF;}
</style>
<g>
	<g>
		<g>
			<path class="st0" d="M456,216h-0.3c-3-88.7-60.3-166.4-144-195.6C309.8,8.7,299.8,0,288,0h-96c-11.8,0-21.8,8.7-23.6,20.4
				C84.6,49.6,27.4,127.3,24.3,216H24c-13.3,0-24,10.7-24,24v16c0,13.3,10.7,24,24,24h432c13.3,0,24-10.7,24-24v-16
				C480,226.7,469.3,216,456,216z M168,37.5V176c0,4.4,3.6,8,8,8s8-3.6,8-8V24c0-4.4,3.6-8,8-8h40v176c0,4.4,3.6,8,8,8s8-3.6,8-8V16
				h40c4.4,0,8,3.6,8,8v152c0,4.4,3.6,8,8,8s8-3.6,8-8V37.5c74.5,28.5,124.7,98.8,127.7,178.5H40.3C43.3,136.3,93.5,66.1,168,37.5z
				 M464,256c0,4.4-3.6,8-8,8H24c-4.4,0-8-3.6-8-8v-16c0-4.4,3.6-8,8-8h432c4.4,0,8,3.6,8,8V256z"/>
			<path class="st0" d="M200,352H96c-13.3,0-24,10.7-24,24v32c0,4.4,3.6,8,8,8s8-3.6,8-8v-32c0-4.4,3.6-8,8-8h104c4.4,0,8-3.6,8-8
				S204.4,352,200,352z"/>
			<path class="st0" d="M472,352h-32.8c-3.8-18.6-20.2-32-39.2-32H80c-22.1,0-40,17.9-40,40H8c-4.4,0-8,3.6-8,8v64c0,4.4,3.6,8,8,8
				h34.4c7.1,23.7,28.9,39.9,53.6,40h48c36.6-0.1,70.5-19.3,89.3-50.7c2.3-3.7,7.1-4.8,10.8-2.5c1,0.6,1.9,1.5,2.5,2.5
				c18.8,31.4,52.7,50.6,89.3,50.7h48c27.8,0,51.4-20.5,55.4-48H472c4.4,0,8-3.6,8-8v-64C480,355.6,476.4,352,472,352z M40,424H16
				v-24h24V424z M40,384H16v-8h24V384z M424,424c0,22.1-17.9,40-40,40h-48c-31-0.1-59.7-16.4-75.6-42.9
				c-6.8-11.3-21.5-14.9-32.7-8.1c-3.3,2-6.1,4.8-8.1,8.1C203.6,447.6,175,463.9,144,464H96c-22.1,0-40-17.9-40-40v-64
				c0-13.3,10.7-24,24-24h320c13.3,0,24,10.7,24,24V424z M464,416h-24v-24h24V416z M464,376h-24v-8h24V376z"/>
			<path class="st0" d="M248,352h-16c-4.4,0-8,3.6-8,8s3.6,8,8,8h16c4.4,0,8-3.6,8-8S252.4,352,248,352z"/>
		</g>
	</g>
</g>
</svg>
