<svg id="light" xmlns="http://www.w3.org/2000/svg" viewBox="0 0 298.67 405.33"><defs><style>.cls-1{fill:#f8bf50;}</style></defs><path class="cls-1" d="M181.33,405.33h-64c-14.93,0-32-12.8-32-38.4v-44.8c0-21.33-10.66-40.53-27.73-55.47C19.2,236.8,0,194.13,0,147.2,2.13,66.13,68.27,2.13,147.2,0c40.53,0,78.93,14.93,106.67,42.66s44.8,66.14,44.8,106.67c0,44.8-19.2,87.47-55.47,115.2-19.2,14.93-29.87,38.4-29.87,59.73v49.07c0,17.07-14.93,32-32,32Zm-32-384c-68.26,0-125.86,57.6-128,125.87,0,40.53,17.07,78.93,49.07,102.4,23.47,19.2,36.27,44.8,36.27,72.53v44.8c0,4.27,0,17.07,10.66,17.07h64c6.4,0,10.67-4.27,10.67-10.67V324.26c0-27.73,14.93-57.6,38.4-76.8,29.87-23.46,46.93-59.73,46.93-98.13,0-34.13-12.8-66.13-38.4-91.73C215.47,34.13,183.47,21.33,149.33,21.33Z"/><path class="cls-1" d="M202.67,341.33H96c-6.4,0-10.67-4.27-10.67-10.67S89.6,320,96,320H202.67c6.4,0,10.66,4.26,10.66,10.66S209.07,341.33,202.67,341.33Z"/></svg>