<svg id="Capa_1" data-name="Capa 1" xmlns="http://www.w3.org/2000/svg" viewBox="0 0 83.5 75"><defs><style>.cls-1{fill:#c39842;}</style></defs><path class="cls-1" d="M73.2,0H10.3A10.31,10.31,0,0,0,0,10.3V50.19a10.31,10.31,0,0,0,10.3,10.3H39.41v9.83H24.9a2.34,2.34,0,1,0,0,4.68H58.6a2.34,2.34,0,0,0,0-4.68H44.09V60.49H73.2a10.31,10.31,0,0,0,10.3-10.3V10.3A10.3,10.3,0,0,0,73.2,0ZM10.3,4.68H73.21a5.62,5.62,0,0,1,5.62,5.62V43.64H4.68V10.3A5.61,5.61,0,0,1,10.3,4.68ZM73.2,55.81H10.3a5.63,5.63,0,0,1-5.62-5.62V48.32H78.81v1.87A5.62,5.62,0,0,1,73.2,55.81Z"/></svg>