<?xml version="1.0" encoding="utf-8"?>
<!-- Generator: Adobe Illustrator 24.1.2, SVG Export Plug-In . SVG Version: 6.00 Build 0)  -->
<svg version="1.1" id="Capa_1" xmlns="http://www.w3.org/2000/svg" xmlns:xlink="http://www.w3.org/1999/xlink" x="0px" y="0px"
	 viewBox="0 0 83.5 75" style="enable-background:new 0 0 83.5 75;" xml:space="preserve">
<style type="text/css">
	.st0{fill:#FFFFFF;}
</style>
<path class="st0" d="M73.2,0H10.3C4.6,0,0,4.6,0,10.3v39.9c0,5.7,4.6,10.3,10.3,10.3h29.1v9.8H24.9c-1.3,0-2.3,1-2.3,2.3
	c0,1.3,1,2.3,2.3,2.3h33.7c1.3,0,2.3-1,2.3-2.3c0-1.3-1-2.3-2.3-2.3H44.1v-9.8h29.1c5.7,0,10.3-4.6,10.3-10.3V10.3
	C83.5,4.6,78.9,0,73.2,0C73.2,0,73.2,0,73.2,0z M10.3,4.7h62.9c3.1,0,5.6,2.5,5.6,5.6c0,0,0,0,0,0v33.3H4.7V10.3
	C4.7,7.2,7.2,4.7,10.3,4.7C10.3,4.7,10.3,4.7,10.3,4.7z M73.2,55.8H10.3c-3.1,0-5.6-2.5-5.6-5.6v-1.9h74.1v1.9
	C78.8,53.3,76.3,55.8,73.2,55.8z"/>
</svg>
