<svg id="Capa_1" data-name="Capa 1" xmlns="http://www.w3.org/2000/svg" viewBox="0 0 49.94 47.85"><defs><style>.cls-1{fill:#f8bf50;}</style></defs><path class="cls-1" d="M48.86,22.73a3.59,3.59,0,0,0-2-6.11L34.78,14.87A1.58,1.58,0,0,1,33.59,14L28.18,3a3.58,3.58,0,0,0-6.42,0L16.35,14a1.55,1.55,0,0,1-1.19.86L3.07,16.62a3.59,3.59,0,0,0-2,6.11l8.75,8.53a1.56,1.56,0,0,1,.46,1.4l-2.07,12a3.59,3.59,0,0,0,5.2,3.78l10.81-5.69a1.61,1.61,0,0,1,1.48,0l10.81,5.69a3.68,3.68,0,0,0,1.67.41,3.6,3.6,0,0,0,3.53-4.19l-2.07-12a1.56,1.56,0,0,1,.46-1.4ZM37.68,33l2.07,12a1.58,1.58,0,0,1-2.3,1.67L26.64,41a3.61,3.61,0,0,0-3.34,0L12.49,46.71A1.58,1.58,0,0,1,10.19,45l2.07-12a3.59,3.59,0,0,0-1-3.17L2.48,21.3a1.58,1.58,0,0,1,.88-2.7l12.09-1.76a3.59,3.59,0,0,0,2.69-1.95l5.41-11A1.55,1.55,0,0,1,25,3.05a1.57,1.57,0,0,1,1.42.88l5.4,11a3.6,3.6,0,0,0,2.7,1.95L46.58,18.6a1.58,1.58,0,0,1,.88,2.7l-8.75,8.53A3.58,3.58,0,0,0,37.68,33Z" transform="translate(0 -1.05)"/></svg>